<mxfile host="app.diagrams.net" modified="2023-04-15T13:17:21.602Z" agent="Mozilla/5.0 (Windows NT 10.0; Win64; x64) AppleWebKit/537.36 (KHTML, like Gecko) Chrome/111.0.0.0 Safari/537.36" etag="j4011vxvIVHAbdJ9gjVy" version="21.1.5" type="github">
  <diagram name="Page-1" id="b520641d-4fe3-3701-9064-5fc419738815">
    <mxGraphModel dx="1034" dy="480" grid="1" gridSize="10" guides="1" tooltips="1" connect="1" arrows="1" fold="1" page="1" pageScale="1" pageWidth="1100" pageHeight="850" background="none" math="0" shadow="0">
      <root>
        <mxCell id="0" />
        <mxCell id="1" parent="0" />
        <mxCell id="nblFlZ-5eOU7RHdkYuCI-16" style="edgeStyle=orthogonalEdgeStyle;rounded=0;orthogonalLoop=1;jettySize=auto;html=1;exitX=1;exitY=0.5;exitDx=0;exitDy=0;entryX=0;entryY=0.5;entryDx=0;entryDy=0;" edge="1" parent="1" source="nblFlZ-5eOU7RHdkYuCI-1" target="nblFlZ-5eOU7RHdkYuCI-2">
          <mxGeometry relative="1" as="geometry" />
        </mxCell>
        <mxCell id="nblFlZ-5eOU7RHdkYuCI-27" style="edgeStyle=orthogonalEdgeStyle;rounded=0;orthogonalLoop=1;jettySize=auto;html=1;exitX=1;exitY=0.5;exitDx=0;exitDy=0;entryX=0;entryY=0.5;entryDx=0;entryDy=0;" edge="1" parent="1" source="nblFlZ-5eOU7RHdkYuCI-1" target="nblFlZ-5eOU7RHdkYuCI-3">
          <mxGeometry relative="1" as="geometry" />
        </mxCell>
        <mxCell id="nblFlZ-5eOU7RHdkYuCI-1" value="&lt;font style=&quot;font-size: 18px;&quot;&gt;患者&lt;/font&gt;" style="rounded=0;whiteSpace=wrap;html=1;" vertex="1" parent="1">
          <mxGeometry x="90" y="220" width="100" height="50" as="geometry" />
        </mxCell>
        <mxCell id="nblFlZ-5eOU7RHdkYuCI-5" style="edgeStyle=orthogonalEdgeStyle;rounded=0;orthogonalLoop=1;jettySize=auto;html=1;exitX=1;exitY=0.5;exitDx=0;exitDy=0;" edge="1" parent="1" source="nblFlZ-5eOU7RHdkYuCI-2" target="nblFlZ-5eOU7RHdkYuCI-4">
          <mxGeometry relative="1" as="geometry" />
        </mxCell>
        <mxCell id="nblFlZ-5eOU7RHdkYuCI-2" value="&lt;font style=&quot;font-size: 18px;&quot;&gt;封装注册信息&lt;/font&gt;" style="rounded=1;whiteSpace=wrap;html=1;" vertex="1" parent="1">
          <mxGeometry x="250" y="150" width="130" height="50" as="geometry" />
        </mxCell>
        <mxCell id="nblFlZ-5eOU7RHdkYuCI-20" style="edgeStyle=orthogonalEdgeStyle;rounded=0;orthogonalLoop=1;jettySize=auto;html=1;exitX=1;exitY=0.5;exitDx=0;exitDy=0;" edge="1" parent="1" source="nblFlZ-5eOU7RHdkYuCI-3" target="nblFlZ-5eOU7RHdkYuCI-19">
          <mxGeometry relative="1" as="geometry" />
        </mxCell>
        <mxCell id="nblFlZ-5eOU7RHdkYuCI-3" value="&lt;font style=&quot;font-size: 18px;&quot;&gt;点击登录&lt;/font&gt;" style="rounded=1;whiteSpace=wrap;html=1;" vertex="1" parent="1">
          <mxGeometry x="250" y="280" width="110" height="50" as="geometry" />
        </mxCell>
        <mxCell id="nblFlZ-5eOU7RHdkYuCI-18" style="edgeStyle=orthogonalEdgeStyle;rounded=0;orthogonalLoop=1;jettySize=auto;html=1;entryX=0.5;entryY=0;entryDx=0;entryDy=0;" edge="1" parent="1" source="nblFlZ-5eOU7RHdkYuCI-4" target="nblFlZ-5eOU7RHdkYuCI-17">
          <mxGeometry relative="1" as="geometry" />
        </mxCell>
        <mxCell id="nblFlZ-5eOU7RHdkYuCI-4" value="&lt;font style=&quot;font-size: 16px;&quot;&gt;patient表&lt;/font&gt;" style="html=1;rounded=0;shadow=0;comic=0;labelBackgroundColor=none;strokeWidth=2;fontFamily=Verdana;fontSize=12;align=center;shape=mxgraph.ios7ui.horLines;" vertex="1" parent="1">
          <mxGeometry x="540" y="150" width="135" height="50" as="geometry" />
        </mxCell>
        <mxCell id="nblFlZ-5eOU7RHdkYuCI-6" value="&lt;font style=&quot;font-size: 16px;&quot;&gt;患者注册信息&lt;/font&gt;" style="text;html=1;strokeColor=none;fillColor=none;align=center;verticalAlign=middle;whiteSpace=wrap;rounded=0;" vertex="1" parent="1">
          <mxGeometry x="400" y="150" width="110" height="30" as="geometry" />
        </mxCell>
        <mxCell id="nblFlZ-5eOU7RHdkYuCI-11" value="&lt;font style=&quot;font-size: 16px;&quot;&gt;患者信息&lt;/font&gt;" style="text;html=1;strokeColor=none;fillColor=none;align=center;verticalAlign=middle;whiteSpace=wrap;rounded=0;" vertex="1" parent="1">
          <mxGeometry x="535" y="350" width="110" height="30" as="geometry" />
        </mxCell>
        <mxCell id="nblFlZ-5eOU7RHdkYuCI-33" style="edgeStyle=orthogonalEdgeStyle;rounded=0;orthogonalLoop=1;jettySize=auto;html=1;exitX=1;exitY=0.5;exitDx=0;exitDy=0;entryX=0.5;entryY=1;entryDx=0;entryDy=0;" edge="1" parent="1" source="nblFlZ-5eOU7RHdkYuCI-13" target="nblFlZ-5eOU7RHdkYuCI-3">
          <mxGeometry relative="1" as="geometry">
            <Array as="points">
              <mxPoint x="930" y="175" />
              <mxPoint x="930" y="430" />
              <mxPoint x="305" y="430" />
            </Array>
          </mxGeometry>
        </mxCell>
        <mxCell id="nblFlZ-5eOU7RHdkYuCI-13" value="&lt;font style=&quot;font-size: 18px;&quot;&gt;id+token存至Redis&lt;/font&gt;" style="rounded=1;whiteSpace=wrap;html=1;" vertex="1" parent="1">
          <mxGeometry x="740" y="150" width="170" height="50" as="geometry" />
        </mxCell>
        <mxCell id="nblFlZ-5eOU7RHdkYuCI-15" value="&lt;font style=&quot;font-size: 16px;&quot;&gt;token+患者id&lt;/font&gt;" style="text;html=1;strokeColor=none;fillColor=none;align=center;verticalAlign=middle;whiteSpace=wrap;rounded=0;" vertex="1" parent="1">
          <mxGeometry x="720" y="270" width="110" height="30" as="geometry" />
        </mxCell>
        <mxCell id="nblFlZ-5eOU7RHdkYuCI-21" style="edgeStyle=orthogonalEdgeStyle;rounded=0;orthogonalLoop=1;jettySize=auto;html=1;exitX=0;exitY=0.5;exitDx=0;exitDy=0;" edge="1" parent="1" source="nblFlZ-5eOU7RHdkYuCI-17" target="nblFlZ-5eOU7RHdkYuCI-19">
          <mxGeometry relative="1" as="geometry" />
        </mxCell>
        <mxCell id="nblFlZ-5eOU7RHdkYuCI-17" value="&lt;font style=&quot;font-size: 18px;&quot;&gt;查询患者&lt;/font&gt;" style="rounded=1;whiteSpace=wrap;html=1;" vertex="1" parent="1">
          <mxGeometry x="552.5" y="280" width="110" height="50" as="geometry" />
        </mxCell>
        <mxCell id="nblFlZ-5eOU7RHdkYuCI-30" style="edgeStyle=orthogonalEdgeStyle;rounded=0;orthogonalLoop=1;jettySize=auto;html=1;exitX=1;exitY=0.5;exitDx=0;exitDy=0;entryX=0;entryY=0.5;entryDx=0;entryDy=0;" edge="1" parent="1" source="nblFlZ-5eOU7RHdkYuCI-19" target="nblFlZ-5eOU7RHdkYuCI-29">
          <mxGeometry relative="1" as="geometry" />
        </mxCell>
        <mxCell id="nblFlZ-5eOU7RHdkYuCI-19" value="&lt;font style=&quot;font-size: 18px;&quot;&gt;数据对比验证&lt;/font&gt;" style="rounded=1;whiteSpace=wrap;html=1;" vertex="1" parent="1">
          <mxGeometry x="390" y="350" width="140" height="50" as="geometry" />
        </mxCell>
        <mxCell id="nblFlZ-5eOU7RHdkYuCI-22" value="&lt;font style=&quot;font-size: 24px;&quot;&gt;&lt;b&gt;*&lt;/b&gt;&lt;/font&gt;" style="text;html=1;strokeColor=none;fillColor=none;align=center;verticalAlign=middle;whiteSpace=wrap;rounded=0;" vertex="1" parent="1">
          <mxGeometry x="417" y="314" width="110" height="30" as="geometry" />
        </mxCell>
        <mxCell id="nblFlZ-5eOU7RHdkYuCI-23" value="&lt;font style=&quot;font-size: 16px;&quot;&gt;登录信息&lt;/font&gt;" style="text;html=1;strokeColor=none;fillColor=none;align=center;verticalAlign=middle;whiteSpace=wrap;rounded=0;" vertex="1" parent="1">
          <mxGeometry x="350" y="280" width="110" height="30" as="geometry" />
        </mxCell>
        <mxCell id="nblFlZ-5eOU7RHdkYuCI-25" value="&lt;font style=&quot;font-size: 16px;&quot;&gt;患者信息&lt;/font&gt;" style="text;html=1;strokeColor=none;fillColor=none;align=center;verticalAlign=middle;whiteSpace=wrap;rounded=0;" vertex="1" parent="1">
          <mxGeometry x="590" y="230" width="110" height="30" as="geometry" />
        </mxCell>
        <mxCell id="nblFlZ-5eOU7RHdkYuCI-26" value="&lt;font style=&quot;font-size: 16px;&quot;&gt;患者信息&lt;/font&gt;" style="text;html=1;strokeColor=none;fillColor=none;align=center;verticalAlign=middle;whiteSpace=wrap;rounded=0;" vertex="1" parent="1">
          <mxGeometry x="460" y="280" width="110" height="30" as="geometry" />
        </mxCell>
        <mxCell id="nblFlZ-5eOU7RHdkYuCI-31" style="edgeStyle=orthogonalEdgeStyle;rounded=0;orthogonalLoop=1;jettySize=auto;html=1;exitX=1;exitY=0.5;exitDx=0;exitDy=0;entryX=0.5;entryY=1;entryDx=0;entryDy=0;" edge="1" parent="1" source="nblFlZ-5eOU7RHdkYuCI-29" target="nblFlZ-5eOU7RHdkYuCI-13">
          <mxGeometry relative="1" as="geometry" />
        </mxCell>
        <mxCell id="nblFlZ-5eOU7RHdkYuCI-29" value="&lt;font style=&quot;font-size: 18px;&quot;&gt;生成token凭证&lt;/font&gt;" style="rounded=1;whiteSpace=wrap;html=1;" vertex="1" parent="1">
          <mxGeometry x="645" y="350" width="140" height="50" as="geometry" />
        </mxCell>
        <mxCell id="nblFlZ-5eOU7RHdkYuCI-34" value="&lt;font style=&quot;font-size: 16px;&quot;&gt;token信息&lt;/font&gt;" style="text;html=1;strokeColor=none;fillColor=none;align=center;verticalAlign=middle;whiteSpace=wrap;rounded=0;" vertex="1" parent="1">
          <mxGeometry x="830" y="270" width="110" height="30" as="geometry" />
        </mxCell>
      </root>
    </mxGraphModel>
  </diagram>
</mxfile>
